# Blender 3.5.0
# www.blender.org
o Cube
v -0.337335 1.945762 0.337335
v -0.337335 2.000000 0.337335
v -0.337335 1.945762 -0.337335
v -0.337335 2.000000 -0.337335
v 0.337335 1.945762 0.337335
v 0.337335 2.000000 0.337335
v 0.337335 1.945762 -0.337335
v 0.337335 2.000000 -0.337335
vn -1.0000 -0.0000 -0.0000
vn -0.0000 -0.0000 -1.0000
vn 1.0000 -0.0000 -0.0000
vn -0.0000 -0.0000 1.0000
vn -0.0000 -1.0000 -0.0000
vn -0.0000 1.0000 -0.0000
vt 0.375000 0.000000
vt 0.375000 1.000000
vt 0.125000 0.750000
vt 0.625000 0.000000
vt 0.625000 1.000000
vt 0.875000 0.750000
vt 0.375000 0.250000
vt 0.125000 0.500000
vt 0.625000 0.250000
vt 0.875000 0.500000
vt 0.375000 0.750000
vt 0.625000 0.750000
vt 0.375000 0.500000
vt 0.625000 0.500000
s 0
f 1/1/1 2/4/1 4/9/1 3/7/1
f 3/7/2 4/9/2 8/14/2 7/13/2
f 7/13/3 8/14/3 6/12/3 5/11/3
f 5/11/4 6/12/4 2/5/4 1/2/4
f 3/8/5 7/13/5 5/11/5 1/3/5
f 8/14/6 4/10/6 2/6/6 6/12/6
o Plane
v -1.000000 0.000000 1.000000
v 1.000000 0.000000 1.000000
v -1.000000 -0.000000 -1.000000
v 1.000000 -0.000000 -1.000000
vn -0.0000 1.0000 -0.0000
vt 0.000000 0.000000
vt 1.000000 0.000000
vt 0.000000 1.000000
vt 1.000000 1.000000
s 0
f 9/15/7 10/16/7 12/18/7 11/17/7
o Plane.001
v -1.000000 2.000000 1.000000
v -1.000000 0.000000 1.000000
v -1.000000 2.000000 -1.000000
v -1.000000 -0.000000 -1.000000
vn 1.0000 -0.0000 -0.0000
vt 0.000000 0.000000
vt 1.000000 0.000000
vt 0.000000 1.000000
vt 1.000000 1.000000
s 0
f 13/19/8 14/20/8 16/22/8 15/21/8
o Plane.002
v 1.000000 2.000000 -1.000000
v 1.000000 -0.000000 -1.000000
v 1.000000 2.000000 1.000000
v 1.000000 0.000000 1.000000
vn -1.0000 -0.0000 -0.0000
vt 0.000000 0.000000
vt 1.000000 0.000000
vt 0.000000 1.000000
vt 1.000000 1.000000
s 0
f 17/23/9 18/24/9 20/26/9 19/25/9
o Plane.003
v -1.000000 2.000000 -1.000000
v 1.000000 2.000000 -1.000000
v -1.000000 2.000000 1.000000
v 1.000000 2.000000 1.000000
vn -0.0000 -1.0000 -0.0000
vt 0.000000 0.000000
vt 1.000000 0.000000
vt 0.000000 1.000000
vt 1.000000 1.000000
s 0
f 21/27/10 22/28/10 24/30/10 23/29/10
o Plane.004
v -1.000000 2.000000 -1.000000
v -1.000000 -0.000000 -1.000000
v 1.000000 2.000000 -1.000000
v 1.000000 -0.000000 -1.000000
vn -0.0000 -0.0000 1.0000
vt 0.000000 0.000000
vt 1.000000 0.000000
vt 0.000000 1.000000
vt 1.000000 1.000000
s 0
f 25/31/11 26/32/11 28/34/11 27/33/11
o Plane.005
v 1.000000 2.000000 3.000000
v 1.000000 -0.000000 3.000000
v -1.000000 2.000000 3.000000
v -1.000000 -0.000000 3.000000
vn -0.0000 -0.0000 -1.0000
vt 0.000000 0.000000
vt 1.000000 0.000000
vt 0.000000 1.000000
vt 1.000000 1.000000
s 0
f 29/35/12 30/36/12 32/38/12 31/37/12
o Plane.006
v 1.000000 2.000000 3.000000
v -1.000000 2.000000 3.000000
v 1.000000 2.000000 1.000000
v -1.000000 2.000000 1.000000
vn -0.0000 -1.0000 -0.0000
vt 0.000000 0.000000
vt 1.000000 0.000000
vt 0.000000 1.000000
vt 1.000000 1.000000
s 0
f 33/39/13 34/40/13 36/42/13 35/41/13
o Plane.007
v -1.000000 2.000000 3.000000
v -1.000000 -0.000000 3.000000
v -1.000000 2.000000 1.000000
v -1.000000 0.000000 1.000000
vn 1.0000 -0.0000 -0.0000
vt 0.000000 0.000000
vt 1.000000 0.000000
vt 0.000000 1.000000
vt 1.000000 1.000000
s 0
f 37/43/14 38/44/14 40/46/14 39/45/14
o Plane.008
v 1.000000 2.000000 1.000000
v 1.000000 0.000000 1.000000
v 1.000000 2.000000 3.000000
v 1.000000 -0.000000 3.000000
vn -1.0000 -0.0000 -0.0000
vt 0.000000 0.000000
vt 1.000000 0.000000
vt 0.000000 1.000000
vt 1.000000 1.000000
s 0
f 41/47/15 42/48/15 44/50/15 43/49/15
o Plane.009
v 1.000000 0.000000 1.000000
v -1.000000 0.000000 1.000000
v 1.000000 -0.000000 3.000000
v -1.000000 -0.000000 3.000000
vn -0.0000 1.0000 -0.0000
vt 0.000000 0.000000
vt 1.000000 0.000000
vt 0.000000 1.000000
vt 1.000000 1.000000
s 0
f 45/51/16 46/52/16 48/54/16 47/53/16
o Cube.001
v -0.320275 0.001132 0.218176
v -0.320275 0.690479 0.218176
v -0.538619 0.001132 -0.078411
v -0.538619 0.690479 -0.078411
v -0.031419 0.001132 0.005524
v -0.031419 0.690479 0.005524
v -0.249763 0.001132 -0.291063
v -0.249763 0.690479 -0.291063
vn -0.8053 -0.0000 0.5929
vn -0.5929 -0.0000 -0.8053
vn 0.8053 -0.0000 -0.5929
vn 0.5929 -0.0000 0.8053
vn -0.0000 -1.0000 -0.0000
vn -0.0000 1.0000 -0.0000
vt 0.375000 0.000000
vt 0.375000 1.000000
vt 0.125000 0.750000
vt 0.625000 0.000000
vt 0.625000 1.000000
vt 0.875000 0.750000
vt 0.375000 0.250000
vt 0.125000 0.500000
vt 0.625000 0.250000
vt 0.875000 0.500000
vt 0.375000 0.750000
vt 0.625000 0.750000
vt 0.375000 0.500000
vt 0.625000 0.500000
s 0
f 49/55/17 50/58/17 52/63/17 51/61/17
f 51/61/18 52/63/18 56/68/18 55/67/18
f 55/67/19 56/68/19 54/66/19 53/65/19
f 53/65/20 54/66/20 50/59/20 49/56/20
f 51/62/21 55/67/21 53/65/21 49/57/21
f 56/68/22 52/64/22 50/60/22 54/66/22
o Cube.002
v 0.060666 0.000000 0.491178
v 0.060666 0.312462 0.491178
v 0.040828 0.000000 0.189618
v 0.040828 0.312462 0.189618
v 0.319188 0.000000 0.474171
v 0.319188 0.312462 0.474171
v 0.299350 0.000000 0.172612
v 0.299350 0.312462 0.172612
vn -0.9978 -0.0000 0.0656
vn -0.0656 -0.0000 -0.9978
vn 0.9978 -0.0000 -0.0656
vn 0.0656 -0.0000 0.9978
vn -0.0000 -1.0000 -0.0000
vn -0.0000 1.0000 -0.0000
vt 0.375000 0.000000
vt 0.375000 1.000000
vt 0.125000 0.750000
vt 0.625000 0.000000
vt 0.625000 1.000000
vt 0.875000 0.750000
vt 0.375000 0.250000
vt 0.125000 0.500000
vt 0.625000 0.250000
vt 0.875000 0.500000
vt 0.375000 0.750000
vt 0.625000 0.750000
vt 0.375000 0.500000
vt 0.625000 0.500000
s 0
f 57/69/23 58/72/23 60/77/23 59/75/23
f 59/75/24 60/77/24 64/82/24 63/81/24
f 63/81/25 64/82/25 62/80/25 61/79/25
f 61/79/26 62/80/26 58/73/26 57/70/26
f 59/76/27 63/81/27 61/79/27 57/71/27
f 64/82/28 60/78/28 58/74/28 62/80/28
