# Blender 3.5.0
# www.blender.org
mtllib myCornellBox.mtl
o Plane
v -1.000000 0.000000 1.000000
v 1.000000 0.000000 1.000000
v -1.000000 0.000000 -1.000000
v 1.000000 0.000000 -1.000000
vn -0.0000 1.0000 -0.0000
vt 0.000000 0.000000
vt 1.000000 0.000000
vt 0.000000 1.000000
vt 1.000000 1.000000
s 0
f 1/1/1 2/2/1 4/4/1 3/3/1
o Plane.001
v -1.000000 2.000000 1.000000
v -1.000000 0.000000 1.000000
v -1.000000 2.000000 -1.000000
v -1.000000 0.000000 -1.000000
vn 1.0000 -0.0000 -0.0000
vt 0.000000 0.000000
vt 1.000000 0.000000
vt 0.000000 1.000000
vt 1.000000 1.000000
s 0
f 5/5/2 6/6/2 8/8/2 7/7/2
o Plane.002
v 1.000000 2.000000 -1.000000
v 1.000000 0.000000 -1.000000
v 1.000000 2.000000 1.000000
v 1.000000 0.000000 1.000000
vn -1.0000 -0.0000 -0.0000
vt 0.000000 0.000000
vt 1.000000 0.000000
vt 0.000000 1.000000
vt 1.000000 1.000000
s 0
f 9/9/3 10/10/3 12/12/3 11/11/3
o Plane.003
v -1.000000 2.000000 -1.000000
v 1.000000 2.000000 -1.000000
v -1.000000 2.000000 1.000000
v 1.000000 2.000000 1.000000
vn -0.0000 -1.0000 -0.0000
vt 0.000000 0.000000
vt 1.000000 0.000000
vt 0.000000 1.000000
vt 1.000000 1.000000
s 0
f 13/13/4 14/14/4 16/16/4 15/15/4
o Plane.004
v -1.000000 2.000000 -1.000000
v -1.000000 -0.000000 -1.000000
v 1.000000 2.000000 -1.000000
v 1.000000 0.000000 -1.000000
vn -0.0000 -0.0000 1.0000
vt 0.000000 0.000000
vt 1.000000 0.000000
vt 0.000000 1.000000
vt 1.000000 1.000000
s 0
f 17/17/5 18/18/5 20/20/5 19/19/5
o Cube
v -0.337335 1.945762 0.337335
v -0.337335 2.000000 0.337335
v -0.337335 1.945762 -0.337335
v -0.337335 2.000000 -0.337335
v 0.337335 1.945762 0.337335
v 0.337335 2.000000 0.337335
v 0.337335 1.945762 -0.337335
v 0.337335 2.000000 -0.337335
vn -1.0000 -0.0000 -0.0000
vn -0.0000 -0.0000 -1.0000
vn 1.0000 -0.0000 -0.0000
vn -0.0000 -0.0000 1.0000
vn -0.0000 -1.0000 -0.0000
vn -0.0000 1.0000 -0.0000
vt 0.375000 0.000000
vt 0.375000 1.000000
vt 0.125000 0.750000
vt 0.625000 0.000000
vt 0.625000 1.000000
vt 0.875000 0.750000
vt 0.375000 0.250000
vt 0.125000 0.500000
vt 0.625000 0.250000
vt 0.875000 0.500000
vt 0.375000 0.750000
vt 0.625000 0.750000
vt 0.375000 0.500000
vt 0.625000 0.500000
s 0
f 21/21/6 22/24/6 24/29/6 23/27/6
f 23/27/7 24/29/7 28/34/7 27/33/7
f 27/33/8 28/34/8 26/32/8 25/31/8
f 25/31/9 26/32/9 22/25/9 21/22/9
f 23/28/10 27/33/10 25/31/10 21/23/10
f 28/34/11 24/30/11 22/26/11 26/32/11
