v 142.275 -164.684 -222.937
v 144.341 -156.611 -189.123
v 144.475 -189.798 -192.755
v 142.505 -195.249 -224.626
v 330.045 -162.613 -234.9
v 332.11 -154.539 -201.085
v 332.245 -187.727 -204.718
v 330.274 -193.177 -236.589

vn -0.988559636 0.113057396 -0.09983923
vn -0.949405612 0.193458398 0.247392061
vn -0.965486533 -0.148224101 0.214162018
vn -0.972490893 -0.202126966 -0.11578494
vn 0.965175897 0.134606199 -0.224313751
vn 0.96863934 0.214622417 0.125200028
vn 0.98787863 -0.126679515 0.089711275
vn 0.954142849 -0.180867505 -0.238533788

f 2//2 1//1 3//3
f 3//3 1//1 4//4
f 5//5 6//6 7//7
f 5//5 7//7 8//8
f 1//1 2//2 6//6
f 5//5 1//1 6//6
f 4//4 1//1 8//8
f 1//1 5//5 8//8
f 6//6 3//3 7//7
f 2//2 3//3 6//6
f 3//3 8//8 7//7
f 3//3 4//4 8//8